<svg width="150" height="159" viewBox="0 0 150 159" fill="none" xmlns="http://www.w3.org/2000/svg">
<g clip-path="url(#clip0_1006_118)">
<path d="M122.522 71.8718L120.494 81.7106L128.509 76.722L132.089 82.4129L118.622 90.7955L115.684 105.05L129.686 100.378L136.365 86.1787L142.481 89.0223L138.527 97.4301L148.016 94.2631L150.153 100.653L140.585 103.85L148.919 108.25L145.745 114.195L131.744 106.798L117.914 111.406L128.922 121.102L144.604 119.732L145.173 126.426L135.891 127.239L143.369 133.828L138.874 138.88L131.327 132.238L131.639 141.631L124.886 141.879L124.352 126.1L113.344 116.403L110.394 130.721L119.469 143.65L113.923 147.5L108.521 139.806L106.478 149.72L99.8398 148.382L101.865 138.555L93.9558 143.48L90.3768 137.782L103.737 129.471L106.688 115.153L92.8924 119.754L86.1573 134.067L80.0414 131.224L84.0451 122.701L74.4065 125.917L72.2632 119.526L81.8226 116.34L73.6028 111.997L76.777 106.051L90.6635 113.392L104.63 108.733L93.7286 99.1303L77.9181 100.514L77.3499 93.8141L86.76 92.9935L79.1583 86.2934L83.6596 81.2427L91.194 87.883L90.8832 78.6152L97.6364 78.3672L98.1626 94.0198L109.065 103.616L112.002 89.3678L102.997 76.545L108.543 72.6949L113.874 80.283L115.883 70.5329L122.522 71.8718Z" fill="black" style="fill:black;fill-opacity:1;"/>
<path d="M115.269 65L115.035 63.2607C114.524 59.4504 113.341 55.7611 111.541 52.364V52.364C110.008 49.4713 108.047 46.8266 105.725 44.5195L105.106 43.9049C102.83 41.6439 100.278 39.6783 97.5115 38.0543L96.5169 37.4705C92.5956 35.1688 88.3635 33.4435 83.9506 32.3477L82.5507 32L79.9339 31.6534C76.6558 31.2193 73.3386 31.1651 70.0481 31.4919L69.4847 31.5479C66.4612 31.8482 63.4842 32.508 60.6169 33.5132V33.5132C57.7995 34.501 55.1074 35.8155 52.5959 37.4298L51.0922 38.3962C48.919 39.7931 46.9324 41.4609 45.1804 43.3594V43.3594C43.2577 45.4429 41.6355 47.7848 40.3608 50.3172L38.7587 53.5L37.9293 55.4225C36.4761 58.7906 35.5061 62.3472 35.0481 65.9867L35.0276 66.1498C34.4986 70.3536 34.677 74.6163 35.5555 78.7612V78.7612C36.0123 80.9163 36.6557 83.0276 37.4786 85.0711L38.017 86.4081C39.5136 90.1247 41.4156 93.6649 43.6884 96.9645L46.8124 101.5L51.6582 106.955C53.4571 108.98 55.0576 111.173 56.4378 113.504L56.8063 114.126C58.5249 117.029 59.8397 120.152 60.7142 123.409V123.409C61.1773 125.134 61.5152 126.89 61.7252 128.664L62.4164 134.5V140.577C62.4164 143.162 62.9731 145.717 64.0486 148.067L64.3938 148.821C64.7522 149.604 65.2014 150.343 65.7324 151.021V151.021C67.4804 153.253 70.0246 154.722 72.8319 155.121L73.8798 155.27C74.9585 155.423 76.0517 155.446 77.1358 155.338L78.3325 155.219C79.7902 155.074 81.2096 154.666 82.5216 154.014L83.099 153.728C84.7155 152.925 86.0794 151.692 87.0406 150.164V150.164C87.7317 149.066 88.1981 147.841 88.4129 146.561L88.5909 145.5" stroke="black" style="stroke:black;stroke-opacity:1;" stroke-width="7" stroke-linecap="round"/>
<path d="M58.4902 129L69.9671 127.5" stroke="black" style="stroke:black;stroke-opacity:1;" stroke-width="6" stroke-linecap="round"/>
<path d="M58.3906 139.008L78.5249 136" stroke="black" style="stroke:black;stroke-opacity:1;" stroke-width="6" stroke-linecap="round"/>
<path d="M63.4137 148.009L88.592 144.5" stroke="black" style="stroke:black;stroke-opacity:1;" stroke-width="6" stroke-linecap="round"/>
<path d="M4.02734 73.4536L17.1066 72.9999" stroke="black" style="stroke:black;stroke-opacity:1;" stroke-width="7" stroke-linecap="round"/>
<path d="M20.1348 19L30.1602 27.3562" stroke="black" style="stroke:black;stroke-opacity:1;" stroke-width="7" stroke-linecap="round"/>
<path d="M78.752 3L78.5235 15.998" stroke="black" style="stroke:black;stroke-opacity:1;" stroke-width="7" stroke-linecap="round"/>
<path d="M127.117 21L119.799 31.7775" stroke="black" style="stroke:black;stroke-opacity:1;" stroke-width="7" stroke-linecap="round"/>
<path d="M145.902 68L132.887 69.3589" stroke="black" style="stroke:black;stroke-opacity:1;" stroke-width="7" stroke-linecap="round"/>
</g>
<defs>
<clipPath id="clip0_1006_118">
<rect width="150" height="159" fill="white" style="fill:white;fill-opacity:1;"/>
</clipPath>
</defs>
</svg>
