<svg width="150" height="122" viewBox="0 0 150 122" fill="none" xmlns="http://www.w3.org/2000/svg">
<g clip-path="url(#clip0_1003_25)">
<path d="M82.1593 74.2732L82.4652 74.4657H82.8266H98.221C101.312 74.6627 103.464 76.3064 104.187 78.1579C104.867 79.8978 104.438 82.2563 101.404 84.3341L101.387 84.3458L101.37 84.358C96.3947 88.0126 89.73 87.8696 82.3525 87.2066L82.3276 87.2043L82.3026 87.2031C80.7475 87.1257 79.4442 87.5919 78.5181 88.4509C77.6044 89.2985 77.139 90.4554 77.1203 91.6091C77.1017 92.7642 77.5303 93.9414 78.4277 94.8307C79.3258 95.7207 80.6137 96.2459 82.1879 96.2631C83.2068 96.3383 84.2393 96.2568 85.1706 96.1681C85.3296 96.1529 85.485 96.1377 85.6371 96.1227C86.4265 96.0453 87.1287 95.9763 87.7915 95.9763L87.7931 95.9763C97.0358 95.9642 105.142 94.2006 110.107 86.4249L110.162 86.3382L110.203 86.2436L112.33 81.2726L134.793 70.1406C140 68.4614 144.282 70.3566 146.357 73.4229C148.414 76.4622 148.446 80.8552 144.689 84.6145C128.15 96.6366 111.199 106.53 93.859 114.522L93.7938 114.552L93.7325 114.589C87.5672 118.339 81.4573 120.118 75.3872 120.087C69.3137 120.055 63.1965 118.21 57.0218 114.58L56.9922 114.562L56.9617 114.547L38.9406 105.242V63.0882H57.4471C65.5765 64.5694 73.7862 69.0043 82.1593 74.2732ZM77.6601 31.497L77.6606 31.4951C79.4081 24.9392 86.1253 21.0527 92.695 22.8116C99.2542 24.5708 103.139 31.2902 101.38 37.8466C99.6212 44.4057 92.9017 48.2904 86.3454 46.5319C79.7863 44.7727 75.9016 38.0533 77.6601 31.497ZM65.5283 10.3776L64.3174 10.0532L63.9937 11.2643C63.2038 14.2191 60.1475 15.9771 57.2019 15.1871L55.9912 14.8624L55.6671 16.0732L50.9653 33.6359L50.6412 34.8466L51.8521 35.1703C54.8088 35.9608 56.5644 39.0065 55.7749 41.9501L55.4502 43.1607L56.6609 43.4849L113.476 58.7027L114.691 59.028L115.012 57.8123C115.791 54.8621 118.844 53.1029 121.791 53.8932L123.001 54.2179L123.326 53.0071L128.027 35.4444L128.352 34.2299L127.137 33.909C124.187 33.13 122.427 30.0769 123.218 27.1302L123.542 25.9197L122.332 25.5954L65.5283 10.3776ZM53.6239 2.53443L136.636 24.7725L125.381 66.7732L42.3686 44.5351L53.6239 2.53443ZM3.25292 58.8411H30.4529V109.191H3.25292V58.8411Z" fill="black" stroke="black" style="fill:black;fill-opacity:1;stroke:black;stroke-opacity:1;" stroke-width="2.50585"/>
</g>
<defs>
<clipPath id="clip0_1003_25">
<rect width="150" height="122" fill="white" style="fill:white;fill-opacity:1;"/>
</clipPath>
</defs>
</svg>
