<svg width="150" height="143" viewBox="0 0 150 143" fill="none" xmlns="http://www.w3.org/2000/svg">
<path d="M120.438 93.9584C121.898 81.0123 119.541 68.608 110.583 53.9212C108.748 64.2504 104.544 70.0721 95.4379 77.5884C91.4609 57.2413 78.472 38.2314 66.1124 20.6164C66.8355 44.007 57.9843 77.427 39.7194 95.4455C37.4832 86.0501 39.0901 81.2082 37.6439 71.7321C35.1934 80.1938 30.0916 85.5198 28.6855 97.1747C27.5473 106.685 30.654 114.767 36.4119 120.969C42.8395 127.886 52.5878 132.555 63.5012 134.376C95.1032 139.644 117.425 120.611 120.438 93.9584ZM99.8702 136.612C93.5231 140.175 87.4303 141.961 81.1233 142.549C74.977 143.126 68.7638 142.561 61.9479 141.431C49.1464 139.298 37.6305 133.73 29.9309 125.442C5.74735 99.4227 33.0911 72.3777 35.0327 42.5314C43.4822 51.408 44.3392 56.5957 45.8657 68.2506C46.0264 69.4841 46.1603 70.7176 46.2675 71.9511C49.7624 64.3426 52.387 56.319 54.2081 48.3992C58.1851 31.107 58.3994 18.1148 54.4491 1.12231C69.0985 8.73088 76.7178 18.7373 85.0602 31.7987C90.2022 39.8684 95.1299 48.307 99.5355 58.7399C102.682 47.9957 103.419 44.5142 100.165 33.0322C138.435 53.8289 141.529 113.176 99.8702 136.612Z" fill="black" style="fill:black;fill-opacity:1;"/>
</svg>
