<svg width="95" height="73" viewBox="0 0 95 73" fill="none"
  xmlns="http://www.w3.org/2000/svg">
  <g clip-path="url(#clip0_933_16)">
    <path d="M25.7064 8.1505C27.8446 18.5683 34.412 22.6779 40.1651 26.685C45.6679 30.5169 50.9067 34.1672 52.6794 42.8041C55.5818 56.9453 46.6264 69.3124 32.4852 72.2148C18.341 75.1178 4.1641 67.5506 1.25145 53.3594C0.0216051 47.3673 1.65925 40.9919 5.66987 37.4492C6.46064 36.7509 7.64893 37.0644 8.23114 37.9464C12.6801 44.6865 16.28 43.8129 17.7748 41.5461C18.6816 40.1748 18.4828 37.983 16.5193 35.4888C6.54921 22.7982 17.0006 10.0353 23.5216 6.93596C24.4596 6.49232 25.4484 7.14689 25.7064 8.1505ZM29.61 65.2897C41.5383 62.8415 46.538 57.6078 44.1797 46.1173C42.7701 39.2495 41.3632 36.5233 35.6987 32.5746L38.5735 34.6128C33.4267 31.0233 27.3276 26.6584 23.8951 17.5444C23.8951 17.5444 23.8951 17.5444 20.9323 21.4607C20.9323 21.4607 16.1993 27.7971 20.0584 32.7075C22.5572 35.885 26.9448 42.3842 24.4831 46.1173C22.9486 48.4444 19.9685 50.4127 16.1496 49.6224C13.7443 49.1238 11.5975 47.6319 9.66859 45.4706C9.66859 45.4706 8.15749 45.83 9.66859 53.3594C11.7777 63.8687 20.0584 65.2897 29.61 65.2897Z" fill="#CE2029" style="fill:#CE2029;fill:color(display-p3 0.8078 0.1255 0.1608);fill-opacity:1;"/>
    <path d="M93.5683 49.95L88.0558 46.7156L92.8511 45.4078C94.0323 45.0844 94.7354 43.8469 94.412 42.6516L93.8354 40.4719C93.5261 39.2766 92.3026 38.5594 91.1214 38.8828L79.9136 41.9344L69.8167 36L79.9276 30.0656L91.1354 33.1172C92.3167 33.4406 93.5261 32.7234 93.8495 31.5281L94.4261 29.3484C94.7354 28.1531 94.0464 26.9156 92.8651 26.5922L88.0698 25.2844L93.5823 22.05C94.637 21.4313 95.0026 20.0531 94.3979 18.9703L93.287 17.0156C92.6823 15.9328 91.3183 15.5672 90.2636 16.1859L84.7511 19.4203L86.0308 14.5406C86.3401 13.3453 85.6511 12.1078 84.4698 11.7844L82.3323 11.2078C81.1511 10.8844 79.9417 11.6016 79.6183 12.7969L76.6229 24.1875L66.512 30.1219V18.2391L74.7104 9.9C75.5683 9.02813 75.5683 7.59375 74.7104 6.72187L73.1495 5.13281C72.2917 4.26094 70.8854 4.26094 70.0276 5.13281L66.5261 8.70469V2.25C66.5261 1.0125 65.5417 0 64.3183 0H62.1104C60.887 0 59.9026 1.0125 59.9026 2.25V8.73281L56.4011 5.16094C55.5433 4.28906 54.137 4.28906 53.2792 5.16094L51.662 6.75C50.8042 7.62187 50.8042 9.05625 51.662 9.92812L59.8604 18.2672V30.15L49.7495 24.2156L46.7542 12.825C46.4448 11.6297 45.2214 10.9125 44.0401 11.2359L41.9026 11.8125C40.7214 12.1359 40.0183 13.3734 40.3417 14.5687L41.6214 19.4484L36.1089 16.2141C35.0542 15.5953 33.7042 15.9609 33.0855 17.0437L31.9745 18.9984C31.3698 20.0813 31.7214 21.4453 32.7901 22.0781L38.3026 25.3125L33.5073 26.5922C32.3261 26.9156 31.623 28.1531 31.9464 29.3484L32.523 31.5281C32.8323 32.7234 34.0558 33.4406 35.237 33.1172L46.4448 30.0656L56.5558 36L46.4448 41.9344L35.237 38.8828C34.0558 38.5594 32.8464 39.2766 32.523 40.4719L31.9464 42.6516C31.637 43.8469 32.3261 45.0844 33.5073 45.4078L38.3026 46.7156L32.7901 49.95C31.7355 50.5688 31.3698 51.9469 31.9745 53.0297L33.0855 54.9844C33.6901 56.0672 35.0542 56.4328 36.1089 55.8141L41.6214 52.5797L40.3417 57.4594C40.0323 58.6547 40.7214 59.8922 41.9026 60.2156L44.0401 60.7922C45.2214 61.1156 46.4308 60.3984 46.7542 59.2031L49.7495 47.8125L59.8604 41.8781V53.7609L51.662 62.1C50.8042 62.9719 50.8042 64.4063 51.662 65.2781L53.2229 66.8672C54.0808 67.7391 55.487 67.7391 56.3448 66.8672L59.8464 63.2953V69.75C59.8464 70.9875 60.8308 72 62.0542 72H64.262C65.4854 72 66.4698 70.9875 66.4698 69.75V63.2672L69.9714 66.8391C70.8292 67.7109 72.2354 67.7109 73.0933 66.8391L74.6542 65.25C75.512 64.3781 75.512 62.9437 74.6542 62.0719L66.4558 53.7328V41.85L76.5667 47.7844L79.562 59.175C79.8714 60.3703 81.0948 61.0875 82.2761 60.7641L84.4136 60.1875C85.5948 59.8641 86.2979 58.6266 85.9745 57.4312L84.6948 52.5516L90.2073 55.7859C91.262 56.4047 92.612 56.0391 93.2308 54.9562L94.3417 53.0016C94.9886 51.9469 94.637 50.5688 93.5683 49.95Z" fill="#00ccff" style="fill:#00ccff;fill-opacity:1;"/>
  </g>
  <defs>
    <clipPath id="clip0_933_16">
      <rect width="95" height="73" fill="white" style="fill:white;fill-opacity:1;"/>
    </clipPath>
  </defs>
</svg>
