<svg width="150" height="159" viewBox="0 0 150 159" fill="none" xmlns="http://www.w3.org/2000/svg">
<g clip-path="url(#clip0_1004_47)">
<path d="M129.923 125.011C132.669 118.228 133.255 111.171 130.593 101.898C128.037 107.209 124.871 109.731 118.781 112.44C119.683 100.848 115.478 88.6376 111.405 77.2751C108.273 90.029 98.4177 106.781 85.7595 113.806C85.9583 108.393 87.5628 106.014 88.2039 100.676C85.5945 104.886 82.0146 107.007 79.4925 113.099C77.4394 118.072 77.9125 122.903 80.112 127.113C82.5683 131.809 87.171 135.783 92.8372 138.392C109.246 145.942 124.265 138.972 129.923 125.011ZM112.297 145.012C108.305 145.993 104.72 146.053 101.198 145.433C97.7652 144.83 94.4681 143.6 90.9282 141.975C84.2812 138.918 78.8518 134.194 75.9099 128.567C66.6674 110.902 85.6282 100.348 91.1838 84.4997C94.4453 90.5561 94.1299 93.4883 93.2042 100.017C93.1057 100.708 92.9927 101.394 92.8651 102.077C95.9144 98.4836 98.5524 94.536 100.737 90.525C105.509 81.7675 107.584 74.775 107.995 65.0002C114.822 71.2933 117.461 77.8369 120.034 86.1398C121.617 91.2678 123.027 96.5634 123.853 102.859C127.185 97.5187 128.111 95.7459 128.07 89.054C145.768 105.992 138.507 138.538 112.297 145.012Z" fill="black" style="fill:black;fill-opacity:1;"/>
<path d="M115.269 65L115.035 63.2607C114.524 59.4504 113.341 55.7611 111.541 52.364V52.364C110.008 49.4713 108.047 46.8266 105.725 44.5195L105.106 43.9049C102.83 41.6439 100.278 39.6783 97.5115 38.0543L96.5169 37.4705C92.5956 35.1688 88.3635 33.4435 83.9506 32.3477L82.5507 32L79.9339 31.6534C76.6558 31.2193 73.3386 31.1651 70.0481 31.4919L69.4847 31.5479C66.4612 31.8482 63.4842 32.508 60.6169 33.5132V33.5132C57.7995 34.501 55.1074 35.8155 52.5959 37.4298L51.0922 38.3962C48.919 39.7931 46.9324 41.4609 45.1804 43.3594V43.3594C43.2577 45.4429 41.6355 47.7848 40.3608 50.3172L38.7587 53.5L37.9293 55.4225C36.4761 58.7906 35.5061 62.3472 35.0481 65.9867L35.0276 66.1498C34.4986 70.3536 34.677 74.6163 35.5555 78.7612V78.7612C36.0123 80.9163 36.6557 83.0276 37.4786 85.0711L38.017 86.4081C39.5136 90.1247 41.4156 93.6649 43.6884 96.9645L46.8124 101.5L51.6582 106.955C53.4571 108.98 55.0576 111.173 56.4378 113.504L56.8063 114.126C58.5249 117.029 59.8397 120.152 60.7142 123.409V123.409C61.1773 125.134 61.5152 126.89 61.7252 128.664L62.4164 134.5V140.577C62.4164 143.162 62.9731 145.717 64.0486 148.067L64.3938 148.821C64.7522 149.604 65.2014 150.343 65.7324 151.021V151.021C67.4804 153.253 70.0246 154.722 72.8319 155.121L73.8798 155.27C74.9585 155.423 76.0517 155.446 77.1358 155.338L78.3325 155.219C79.7902 155.074 81.2096 154.666 82.5216 154.014L83.099 153.728C84.7155 152.925 86.0794 151.692 87.0406 150.164V150.164C87.7317 149.066 88.1981 147.841 88.4129 146.561L88.5909 145.5" stroke="black" style="stroke:black;stroke-opacity:1;" stroke-width="7" stroke-linecap="round"/>
<path d="M58.4902 129L69.9671 127.5" stroke="black" style="stroke:black;stroke-opacity:1;" stroke-width="6" stroke-linecap="round"/>
<path d="M58.3906 139.008L75.5047 136" stroke="black" style="stroke:black;stroke-opacity:1;" stroke-width="6" stroke-linecap="round"/>
<path d="M63.4141 148.009L87.585 145" stroke="black" style="stroke:black;stroke-opacity:1;" stroke-width="6" stroke-linecap="round"/>
<path d="M4.02734 73.4536L17.1066 72.9999" stroke="black" style="stroke:black;stroke-opacity:1;" stroke-width="7" stroke-linecap="round"/>
<path d="M20.1348 19L30.1602 27.3562" stroke="black" style="stroke:black;stroke-opacity:1;" stroke-width="7" stroke-linecap="round"/>
<path d="M78.752 3L78.5235 15.998" stroke="black" style="stroke:black;stroke-opacity:1;" stroke-width="7" stroke-linecap="round"/>
<path d="M127.117 21L119.799 31.7775" stroke="black" style="stroke:black;stroke-opacity:1;" stroke-width="7" stroke-linecap="round"/>
<path d="M145.902 68L132.887 69.3589" stroke="black" style="stroke:black;stroke-opacity:1;" stroke-width="7" stroke-linecap="round"/>
</g>
<defs>
<clipPath id="clip0_1004_47">
<rect width="150" height="159" fill="white" style="fill:white;fill-opacity:1;"/>
</clipPath>
</defs>
</svg>
