<svg width="200" height="200" viewBox="0 0 200 200" fill="none" xmlns="http://www.w3.org/2000/svg">
<path d="M30 108.184L99.3318 44.1174C99.7106 43.7674 100.293 43.7629 100.678 44.107L171 107.095M30 108.184L21.706 115.848C21.3117 116.212 20.6999 116.2 20.3203 115.82L10.7171 106.217C10.3227 105.823 10.3272 105.182 10.7272 104.793L99.2989 18.6817C99.6886 18.3028 100.31 18.3046 100.697 18.6857L128.799 46.3266C129.431 46.9486 130.5 46.5006 130.5 45.6137V31.5C130.5 30.9477 130.948 30.5 131.5 30.5H160C160.552 30.5 161 30.9477 161 31.5V75.0907C161 75.353 161.103 75.6048 161.287 75.7918L189.871 104.86C190.229 105.224 190.255 105.799 189.932 106.195L182.162 115.691C181.801 116.132 181.146 116.182 180.721 115.802L171 107.095M30 108.184V180.5C30 181.052 30.4477 181.5 31 181.5H82M171 107.095V180.5C171 181.052 170.552 181.5 170 181.5H117M117 181.5V136.222C117 136.076 116.964 135.933 116.894 135.805V135.805C109.723 122.549 90.798 122.282 83.255 135.329L82.1253 137.283C82.0432 137.425 82 137.586 82 137.75V181.5M117 181.5H82" stroke="black" stroke-opacity="0.99" style="stroke:black;stroke-opacity:0.99;" stroke-width="8"/>
</svg>
