<svg width="140" height="143" viewBox="0 0 140 143" fill="none" xmlns="http://www.w3.org/2000/svg">
<g clip-path="url(#clip0_1004_48)">
<mask id="path-1-inside-1_1004_48" fill="white">
<path d="M34.8101 73.552C38.6965 80.5521 43.16 87.269 48.9843 93.409C54.7977 99.5817 62.0481 105.188 71.4323 109.978C72.1291 110.316 72.7931 110.316 73.3701 110.087C74.2628 109.75 75.1773 109.009 76.07 108.117C76.7667 107.42 77.6268 106.31 78.5303 105.101C82.1338 100.355 86.6081 94.465 92.9114 97.4044C93.053 97.4697 93.1618 97.5459 93.2925 97.6112L114.336 109.706C114.401 109.739 114.478 109.815 114.543 109.848C117.319 111.753 118.462 114.703 118.495 118.034C118.495 121.431 117.243 125.252 115.414 128.464C112.997 132.72 109.415 135.54 105.3 137.401C101.381 139.209 97.0157 140.178 92.8243 140.798C86.238 141.767 80.0762 141.146 73.7729 139.209C67.6003 137.303 61.395 134.146 54.6126 129.955L54.1119 129.639C50.9983 127.702 47.6344 125.611 44.3358 123.162C32.2517 114.039 19.95 100.877 11.9375 86.3872C5.2096 74.2161 1.54085 61.0869 3.54397 48.5674C4.65439 41.7089 7.59375 35.471 12.7322 31.345C17.2066 27.7415 23.2268 25.7602 31.0324 26.4569C31.9251 26.5222 32.7307 27.0448 33.1444 27.8069L46.6328 50.6032C48.6033 53.1616 48.8537 55.6981 47.7759 58.2347C46.8832 60.314 45.0761 62.23 42.6157 64.0154C41.8863 64.636 41.0263 65.2674 40.1227 65.9206C37.1071 68.1088 32.5 71 34.8536 73.6173L34.8101 73.552ZM82.8523 20.2189C82.2971 20.1754 81.7745 20.023 81.3064 19.7835C80.8165 19.5331 80.3919 19.1956 80.0436 18.7928C79.6952 18.3791 79.423 17.911 79.2489 17.3884C79.0964 16.8877 79.0311 16.3542 79.0747 15.799L79.0855 15.7228C79.1291 15.1894 79.2815 14.6886 79.5101 14.2422L79.5537 14.166C79.7932 13.7088 80.1198 13.306 80.5008 12.9903C80.9036 12.6419 81.3826 12.3698 81.9052 12.1956C82.3951 12.0323 82.9176 11.967 83.451 11.9996L83.5599 12.0105C87.294 12.3044 90.8974 12.8705 94.3593 13.6979C97.8539 14.5362 101.185 15.6575 104.331 17.0183C107.499 18.4009 110.482 20.0448 113.258 21.939C116.024 23.8333 118.604 25.9779 120.944 28.3621C123.263 30.7244 125.364 33.3263 127.226 36.1459C129.066 38.9438 130.666 41.9593 132.016 45.16C133.322 48.2953 134.389 51.6266 135.195 55.1538C135.979 58.6048 136.512 62.23 136.773 66.0185L136.784 66.2036V66.3996C136.784 66.9004 136.697 67.3902 136.534 67.8475C136.36 68.3374 136.098 68.7728 135.761 69.1539C135.423 69.5349 135.021 69.8506 134.563 70.0901C134.139 70.3187 133.649 70.4602 133.137 70.5256L132.919 70.5473H132.713C132.201 70.5582 131.711 70.4711 131.254 70.2969C130.775 70.1228 130.328 69.8615 129.947 69.524C129.545 69.1756 129.207 68.7402 128.968 68.2503C128.739 67.7822 128.587 67.2487 128.554 66.7044C128.325 63.3405 127.868 60.1398 127.182 57.1243C126.496 54.0434 125.571 51.1367 124.439 48.4042C123.307 45.6607 121.946 43.0915 120.389 40.7183C118.81 38.3123 117.036 36.1133 115.076 34.1101C113.095 32.0961 110.929 30.289 108.577 28.6887C106.215 27.0775 103.667 25.684 100.946 24.5082L100.902 24.4865C98.2023 23.3216 95.3391 22.3636 92.3236 21.6451C89.3189 20.9592 86.1618 20.4693 82.8523 20.2189ZM73.7947 59.0403C73.2395 58.9859 72.7169 58.8117 72.2597 58.5722C71.7807 58.3109 71.3561 57.9625 71.0295 57.5488C70.7138 57.1569 70.4634 56.6997 70.3001 56.2098C70.1477 55.7526 70.0824 55.2627 70.1042 54.7619C70.1151 54.6204 70.1151 54.5115 70.1368 54.3809C70.213 53.8583 70.3872 53.3684 70.6267 52.9438C70.8771 52.4975 71.2146 52.1056 71.6065 51.7899C71.9984 51.4742 72.4557 51.2238 72.9455 51.0605C73.4028 50.9189 73.8927 50.8427 74.4043 50.8645L74.7854 50.8972C76.4075 51.0713 77.9642 51.3544 79.4666 51.7354C80.9907 52.1273 82.4386 52.6281 83.7994 53.216L83.843 53.2378C85.2256 53.8474 86.521 54.555 87.7295 55.3715C88.9487 56.1989 90.0809 57.1243 91.126 58.1694C92.1603 59.2036 93.0965 60.3249 93.9239 61.5442C94.7513 62.7526 95.4698 64.0481 96.0903 65.4416C96.6891 66.8024 97.1898 68.2503 97.5818 69.7744C97.9628 71.2658 98.2349 72.8553 98.4091 74.5318C98.4636 75.087 98.4091 75.6313 98.2676 76.1321L98.2567 76.1757C98.1043 76.6765 97.843 77.1446 97.5273 77.5474L97.5164 77.5691C97.179 77.9828 96.7653 78.3203 96.2863 78.5816C95.829 78.832 95.3065 78.9953 94.7513 79.0497H94.6968C94.1634 79.0933 93.6408 79.0388 93.1509 78.8973C92.6284 78.7449 92.1494 78.4836 91.7357 78.1461H91.7248C91.3111 77.8086 90.9627 77.395 90.7015 76.9051C90.4511 76.4478 90.2878 75.9253 90.2334 75.381V75.3374C90.1136 74.1508 89.9176 73.0186 89.6455 71.9408C89.3733 70.8413 89.0249 69.8179 88.6113 68.8708C88.1976 67.9237 87.7186 67.0419 87.1742 66.2363C86.619 65.4198 86.0094 64.6795 85.3344 64.0045C84.6594 63.3296 83.9083 62.7199 83.0918 62.1756C82.2753 61.6313 81.3826 61.1523 80.4137 60.7277L80.3593 60.7059C79.4121 60.2922 78.3888 59.9548 77.3111 59.6826C76.1789 59.3669 75.014 59.1709 73.7947 59.0403ZM78.1493 40.2937H78.0404L77.8989 40.2719C77.3873 40.2175 76.9082 40.0651 76.4837 39.8473C76.0264 39.6078 75.6236 39.2921 75.2862 38.922C74.9378 38.5301 74.6656 38.0837 74.4914 37.5829C74.3281 37.1148 74.241 36.614 74.2519 36.0806V35.8955L74.2737 35.7214C74.3281 35.2206 74.4806 34.7416 74.6983 34.317C74.9378 33.8598 75.2535 33.4461 75.6236 33.1195C76.0264 32.7602 76.4946 32.4881 77.0171 32.303C77.5179 32.1288 78.0513 32.0526 78.6065 32.0853C81.5024 32.2594 84.2566 32.6296 86.8585 33.1848C89.4713 33.74 91.9425 34.4912 94.2396 35.4274C96.5584 36.3745 98.7248 37.5176 100.728 38.8458C102.709 40.1631 104.538 41.6763 106.182 43.3855C107.815 45.0729 109.274 46.9454 110.537 48.992C111.789 51.0169 112.866 53.216 113.737 55.5784C114.586 57.8863 115.261 60.3684 115.74 63.0247C116.209 65.6375 116.492 68.3918 116.579 71.3203L116.59 71.4727C116.59 71.9952 116.492 72.5069 116.296 72.975C116.1 73.4649 115.817 73.9004 115.468 74.2814C115.109 74.6733 114.663 74.989 114.162 75.2068C113.694 75.4245 113.16 75.5442 112.605 75.566H112.42C111.898 75.5551 111.408 75.4572 110.95 75.2721C110.461 75.0761 110.025 74.7931 109.655 74.4447C109.263 74.0746 108.947 73.6391 108.719 73.1383C108.501 72.6593 108.381 72.1368 108.359 71.5707C108.294 69.1321 108.055 66.835 107.674 64.6686C107.293 62.4804 106.748 60.4446 106.073 58.5722C105.398 56.6997 104.571 54.9796 103.613 53.4011C102.644 51.8116 101.534 50.3855 100.293 49.09C99.0297 47.7945 97.6362 46.6296 96.1012 45.6172C94.5553 44.5939 92.8461 43.7121 91.0172 42.9718L90.9736 42.95C89.1229 42.2206 87.1416 41.6218 85.0187 41.1755C82.8849 40.7292 80.6097 40.4243 78.2146 40.2828L78.1493 40.2937Z"/>
</mask>
<path d="M34.8101 73.552C38.6965 80.5521 43.16 87.269 48.9843 93.409C54.7977 99.5817 62.0481 105.188 71.4323 109.978C72.1291 110.316 72.7931 110.316 73.3701 110.087C74.2628 109.75 75.1773 109.009 76.07 108.117C76.7667 107.42 77.6268 106.31 78.5303 105.101C82.1338 100.355 86.6081 94.465 92.9114 97.4044C93.053 97.4697 93.1618 97.5459 93.2925 97.6112L114.336 109.706C114.401 109.739 114.478 109.815 114.543 109.848C117.319 111.753 118.462 114.703 118.495 118.034C118.495 121.431 117.243 125.252 115.414 128.464C112.997 132.72 109.415 135.54 105.3 137.401C101.381 139.209 97.0157 140.178 92.8243 140.798C86.238 141.767 80.0762 141.146 73.7729 139.209C67.6003 137.303 61.395 134.146 54.6126 129.955L54.1119 129.639C50.9983 127.702 47.6344 125.611 44.3358 123.162C32.2517 114.039 19.95 100.877 11.9375 86.3872C5.2096 74.2161 1.54085 61.0869 3.54397 48.5674C4.65439 41.7089 7.59375 35.471 12.7322 31.345C17.2066 27.7415 23.2268 25.7602 31.0324 26.4569C31.9251 26.5222 32.7307 27.0448 33.1444 27.8069L46.6328 50.6032C48.6033 53.1616 48.8537 55.6981 47.7759 58.2347C46.8832 60.314 45.0761 62.23 42.6157 64.0154C41.8863 64.636 41.0263 65.2674 40.1227 65.9206C37.1071 68.1088 32.5 71 34.8536 73.6173L34.8101 73.552ZM82.8523 20.2189C82.2971 20.1754 81.7745 20.023 81.3064 19.7835C80.8165 19.5331 80.3919 19.1956 80.0436 18.7928C79.6952 18.3791 79.423 17.911 79.2489 17.3884C79.0964 16.8877 79.0311 16.3542 79.0747 15.799L79.0855 15.7228C79.1291 15.1894 79.2815 14.6886 79.5101 14.2422L79.5537 14.166C79.7932 13.7088 80.1198 13.306 80.5008 12.9903C80.9036 12.6419 81.3826 12.3698 81.9052 12.1956C82.3951 12.0323 82.9176 11.967 83.451 11.9996L83.5599 12.0105C87.294 12.3044 90.8974 12.8705 94.3593 13.6979C97.8539 14.5362 101.185 15.6575 104.331 17.0183C107.499 18.4009 110.482 20.0448 113.258 21.939C116.024 23.8333 118.604 25.9779 120.944 28.3621C123.263 30.7244 125.364 33.3263 127.226 36.1459C129.066 38.9438 130.666 41.9593 132.016 45.16C133.322 48.2953 134.389 51.6266 135.195 55.1538C135.979 58.6048 136.512 62.23 136.773 66.0185L136.784 66.2036V66.3996C136.784 66.9004 136.697 67.3902 136.534 67.8475C136.36 68.3374 136.098 68.7728 135.761 69.1539C135.423 69.5349 135.021 69.8506 134.563 70.0901C134.139 70.3187 133.649 70.4602 133.137 70.5256L132.919 70.5473H132.713C132.201 70.5582 131.711 70.4711 131.254 70.2969C130.775 70.1228 130.328 69.8615 129.947 69.524C129.545 69.1756 129.207 68.7402 128.968 68.2503C128.739 67.7822 128.587 67.2487 128.554 66.7044C128.325 63.3405 127.868 60.1398 127.182 57.1243C126.496 54.0434 125.571 51.1367 124.439 48.4042C123.307 45.6607 121.946 43.0915 120.389 40.7183C118.81 38.3123 117.036 36.1133 115.076 34.1101C113.095 32.0961 110.929 30.289 108.577 28.6887C106.215 27.0775 103.667 25.684 100.946 24.5082L100.902 24.4865C98.2023 23.3216 95.3391 22.3636 92.3236 21.6451C89.3189 20.9592 86.1618 20.4693 82.8523 20.2189ZM73.7947 59.0403C73.2395 58.9859 72.7169 58.8117 72.2597 58.5722C71.7807 58.3109 71.3561 57.9625 71.0295 57.5488C70.7138 57.1569 70.4634 56.6997 70.3001 56.2098C70.1477 55.7526 70.0824 55.2627 70.1042 54.7619C70.1151 54.6204 70.1151 54.5115 70.1368 54.3809C70.213 53.8583 70.3872 53.3684 70.6267 52.9438C70.8771 52.4975 71.2146 52.1056 71.6065 51.7899C71.9984 51.4742 72.4557 51.2238 72.9455 51.0605C73.4028 50.9189 73.8927 50.8427 74.4043 50.8645L74.7854 50.8972C76.4075 51.0713 77.9642 51.3544 79.4666 51.7354C80.9907 52.1273 82.4386 52.6281 83.7994 53.216L83.843 53.2378C85.2256 53.8474 86.521 54.555 87.7295 55.3715C88.9487 56.1989 90.0809 57.1243 91.126 58.1694C92.1603 59.2036 93.0965 60.3249 93.9239 61.5442C94.7513 62.7526 95.4698 64.0481 96.0903 65.4416C96.6891 66.8024 97.1898 68.2503 97.5818 69.7744C97.9628 71.2658 98.2349 72.8553 98.4091 74.5318C98.4636 75.087 98.4091 75.6313 98.2676 76.1321L98.2567 76.1757C98.1043 76.6765 97.843 77.1446 97.5273 77.5474L97.5164 77.5691C97.179 77.9828 96.7653 78.3203 96.2863 78.5816C95.829 78.832 95.3065 78.9953 94.7513 79.0497H94.6968C94.1634 79.0933 93.6408 79.0388 93.1509 78.8973C92.6284 78.7449 92.1494 78.4836 91.7357 78.1461H91.7248C91.3111 77.8086 90.9627 77.395 90.7015 76.9051C90.4511 76.4478 90.2878 75.9253 90.2334 75.381V75.3374C90.1136 74.1508 89.9176 73.0186 89.6455 71.9408C89.3733 70.8413 89.0249 69.8179 88.6113 68.8708C88.1976 67.9237 87.7186 67.0419 87.1742 66.2363C86.619 65.4198 86.0094 64.6795 85.3344 64.0045C84.6594 63.3296 83.9083 62.7199 83.0918 62.1756C82.2753 61.6313 81.3826 61.1523 80.4137 60.7277L80.3593 60.7059C79.4121 60.2922 78.3888 59.9548 77.3111 59.6826C76.1789 59.3669 75.014 59.1709 73.7947 59.0403ZM78.1493 40.2937H78.0404L77.8989 40.2719C77.3873 40.2175 76.9082 40.0651 76.4837 39.8473C76.0264 39.6078 75.6236 39.2921 75.2862 38.922C74.9378 38.5301 74.6656 38.0837 74.4914 37.5829C74.3281 37.1148 74.241 36.614 74.2519 36.0806V35.8955L74.2737 35.7214C74.3281 35.2206 74.4806 34.7416 74.6983 34.317C74.9378 33.8598 75.2535 33.4461 75.6236 33.1195C76.0264 32.7602 76.4946 32.4881 77.0171 32.303C77.5179 32.1288 78.0513 32.0526 78.6065 32.0853C81.5024 32.2594 84.2566 32.6296 86.8585 33.1848C89.4713 33.74 91.9425 34.4912 94.2396 35.4274C96.5584 36.3745 98.7248 37.5176 100.728 38.8458C102.709 40.1631 104.538 41.6763 106.182 43.3855C107.815 45.0729 109.274 46.9454 110.537 48.992C111.789 51.0169 112.866 53.216 113.737 55.5784C114.586 57.8863 115.261 60.3684 115.74 63.0247C116.209 65.6375 116.492 68.3918 116.579 71.3203L116.59 71.4727C116.59 71.9952 116.492 72.5069 116.296 72.975C116.1 73.4649 115.817 73.9004 115.468 74.2814C115.109 74.6733 114.663 74.989 114.162 75.2068C113.694 75.4245 113.16 75.5442 112.605 75.566H112.42C111.898 75.5551 111.408 75.4572 110.95 75.2721C110.461 75.0761 110.025 74.7931 109.655 74.4447C109.263 74.0746 108.947 73.6391 108.719 73.1383C108.501 72.6593 108.381 72.1368 108.359 71.5707C108.294 69.1321 108.055 66.835 107.674 64.6686C107.293 62.4804 106.748 60.4446 106.073 58.5722C105.398 56.6997 104.571 54.9796 103.613 53.4011C102.644 51.8116 101.534 50.3855 100.293 49.09C99.0297 47.7945 97.6362 46.6296 96.1012 45.6172C94.5553 44.5939 92.8461 43.7121 91.0172 42.9718L90.9736 42.95C89.1229 42.2206 87.1416 41.6218 85.0187 41.1755C82.8849 40.7292 80.6097 40.4243 78.2146 40.2828L78.1493 40.2937Z" stroke="black" style="stroke:black;stroke-opacity:1;" stroke-width="14" mask="url(#path-1-inside-1_1004_48)"/>
</g>
<defs>
<clipPath id="clip0_1004_48">
<rect width="133.774" height="129.245" fill="white" style="fill:white;fill-opacity:1;" transform="translate(3 12)"/>
</clipPath>
</defs>
</svg>
