<svg width="150" height="133" viewBox="0 0 150 133" fill="none" xmlns="http://www.w3.org/2000/svg">
<g clip-path="url(#clip0_1004_57)">
<path d="M80.1028 2.00073V18.4893L91.2934 7.86144L98.9059 15.8562L80.1028 33.7144V57.6031L100.987 45.5419L106.996 20.5278L117.73 23.1184L114.173 37.9294L128.326 29.7541L133.858 39.3415L119.588 47.5911L134.389 51.9654L131.267 62.5614L106.402 55.2036L85.7724 67.1055L106.603 79.1348L131.267 71.8408L134.389 82.4262L119.79 86.7474L133.943 94.9226L128.411 104.51L114.131 96.271L117.73 111.284L106.996 113.874L100.934 88.6585L80.1028 76.6292V100.624L98.9059 118.482L91.2934 126.477L80.1028 115.849V132.465H69.0291V115.998L57.9872 126.488L50.3746 118.482L69.0291 100.773V76.7778L48.4529 88.6585L42.3905 113.874L31.6565 111.284L35.2557 96.271L20.88 104.574L15.3378 94.9863L29.5967 86.758L14.998 82.4368L18.1195 71.8408L42.7833 79.1455L63.6143 67.1161L42.985 55.2036L18.1195 62.5614L14.998 51.9654L29.7985 47.5911L15.4121 39.2778L20.9543 29.6904L35.2132 37.9294L31.6565 23.1184L42.3905 20.5278L48.3998 45.5419L69.0291 57.4439V33.5657L50.3746 15.8562L57.9872 7.86144L69.0291 18.3406V2.00073H80.1028Z" fill="black" style="fill:black;fill-opacity:1;"/>
</g>
<defs>
<clipPath id="clip0_1004_57">
<rect width="119.391" height="130.464" fill="white" style="fill:white;fill-opacity:1;" transform="translate(15 2)"/>
</clipPath>
</defs>
</svg>
