<svg width="150" height="151" viewBox="0 0 150 151" fill="none" xmlns="http://www.w3.org/2000/svg">
<g clip-path="url(#clip0_1005_111)">
<path fill-rule="evenodd" clip-rule="evenodd" d="M82.8699 57.8802V18.2646C82.8699 14.9464 81.509 11.9293 79.32 9.73453C77.1311 7.54556 74.1082 6.1847 70.79 6.1847C67.4718 6.1847 64.4547 7.54556 62.26 9.73453C60.071 11.9293 58.7101 14.9464 58.7101 18.2646V94.4499C50.3423 98.7409 44.6208 107.456 44.6208 117.509C44.6208 131.807 56.2085 143.4 70.512 143.4C84.8156 143.4 96.409 131.807 96.409 117.509C96.409 107.682 90.9366 99.1347 82.8699 94.7452V57.8802ZM75.7876 99.2042C83.7385 101.492 89.5584 108.817 89.5584 117.509C89.5584 128.026 81.0341 136.55 70.512 136.55C59.9957 136.55 51.4657 128.026 51.4657 117.509C51.4657 108.817 57.2856 101.492 65.2423 99.2042V32.1512C65.2423 25.6016 75.7876 25.8622 75.7876 32.1512V99.2042ZM95.5867 21.0963V15.4907H110.197C111.743 15.4907 113 16.7415 113 18.2935C113 19.8397 111.743 21.0963 110.197 21.0963H95.5867ZM95.5867 36.4017V30.7961H110.197C111.743 30.7961 113 32.0527 113 33.5989C113 35.1451 111.743 36.4017 110.197 36.4017H95.5867ZM95.5867 51.7071V46.1015H110.197C111.743 46.1015 113 47.3581 113 48.9043C113 50.4505 111.743 51.7071 110.197 51.7071H95.5867ZM95.5867 67.0125V61.4069H110.197C111.743 61.4069 113 62.6635 113 64.2097C113 65.7559 111.743 67.0125 110.197 67.0125H95.5867ZM95.5867 82.3179V76.7123H110.197C111.743 76.7123 113 77.9689 113 79.5151C113 81.067 111.743 82.3179 110.197 82.3179H95.5867ZM89.0603 89.5913C98.0826 95.5965 104.024 105.858 104.024 117.509C104.024 136.017 89.0198 151.021 70.512 151.021C52.0043 151.021 37 136.017 37 117.509C37 105.621 43.1905 95.1737 52.5254 89.2265V18.2646C52.5254 13.238 54.5812 8.67479 57.8878 5.36239C61.2002 2.05578 65.7635 0 70.79 0C75.8165 0 80.3856 2.05578 83.6922 5.36239C87.0046 8.67479 89.0603 13.238 89.0603 18.2646V89.5913Z" fill="black" style="fill:black;fill-opacity:1;"/>
</g>
<defs>
<clipPath id="clip0_1005_111">
<rect width="150" height="151" fill="white" style="fill:white;fill-opacity:1;"/>
</clipPath>
</defs>
</svg>
